<svg id="Grupo_458" data-name="Grupo 458" xmlns="http://www.w3.org/2000/svg" xmlns:xlink="http://www.w3.org/1999/xlink" width="341.623" height="34" viewBox="0 0 341.623 34">
  <defs>
    <clipPath id="clip-path">
      <rect id="Retângulo_122" data-name="Retângulo 122" width="341" height="34" transform="translate(0)"/>
    </clipPath>
  </defs>
  <g id="Grupo_147" data-name="Grupo 147" transform="translate(95.595 20.071)">
    <path id="Caminho_302" data-name="Caminho 302" d="M369.625,61.924l8.71,13.405h15.7L377.29,61.924Z" transform="translate(-345.417 -61.924)"/>
    <path id="Caminho_303" data-name="Caminho 303" d="M311.685,61.924,294.937,75.329h15.7l8.71-13.405Z" transform="translate(-294.937 -61.924)"/>
  </g>
  <path id="Caminho_304" data-name="Caminho 304" d="M311.7,14.406h7.664L310.662,1h-15.7Z" transform="translate(-199.358 -0.676)"/>
  <path id="Caminho_305" data-name="Caminho 305" d="M377.29,14.406h-7.664L378.336,1h15.7Z" transform="translate(-249.823 -0.676)"/>
  <path id="Caminho_306" data-name="Caminho 306" d="M527.531,61.924l8.71,13.405h15.7L535.2,61.924Z" transform="translate(-356.547 -41.853)"/>
  <path id="Caminho_307" data-name="Caminho 307" d="M469.568,61.924,452.819,75.329h15.7l8.71-13.405Z" transform="translate(-306.051 -41.853)"/>
  <path id="Caminho_308" data-name="Caminho 308" d="M469.583,14.406h7.665L468.545,1h-15.7Z" transform="translate(-306.067 -0.676)"/>
  <path id="Caminho_309" data-name="Caminho 309" d="M535.2,14.406h-7.664L536.234,1h15.7Z" transform="translate(-356.547 -0.676)"/>
  <path id="Caminho_310" data-name="Caminho 310" d="M34.542,1.022v23.2L16.887,1.022H0V34.189H10.122V7.758L31.434,34.189H44.686V1.022Z" transform="translate(0 -0.691)"/>
  <path id="Caminho_311" data-name="Caminho 311" d="M160.7,1V34.175h38.689V27.512H170.824V20.747h28.567V14.406H170.824V7.641h28.567V1Z" transform="translate(-108.616 -0.676)"/>
  <path id="Caminho_312" data-name="Caminho 312" d="M618.713,1V34.08h38.593V27.431H628.813V20.688h28.493V14.362H628.813V7.619H657.3V1Z" transform="translate(-418.176 -0.676)"/>
  <path id="Caminho_313" data-name="Caminho 313" d="M923.826,6.4l7.057,14.115H916.739ZM916.439,1,898.645,34.167H909.9l3.482-6.912h20.88l3.481,6.912H949L931.205,1Z" transform="translate(-607.376 -0.676)"/>
  <g id="Grupo_145" data-name="Grupo 145" transform="translate(-0.001)">
    <g id="Grupo_144" data-name="Grupo 144" transform="translate(0)" clip-path="url(#clip-path)">
      <path id="Caminho_314" data-name="Caminho 314" d="M771.072,8.343v9.215h17.48a4.36,4.36,0,0,0,3.225-1.353,4.591,4.591,0,0,0,0-6.509,4.332,4.332,0,0,0-3.225-1.353Zm32.194,4.608a11.4,11.4,0,0,1-2.172,6.845,12.013,12.013,0,0,1-5.6,4.337l7.76,9.975h-10.67l-6.656-9.215H771.064v9.215H760.935V1H791.3a11.475,11.475,0,0,1,6.012,1.624,12.058,12.058,0,0,1,4.315,4.308,11.458,11.458,0,0,1,1.638,6.019" transform="translate(-514.3 -0.676)"/>
    </g>
  </g>
</svg>
