<svg viewBox="0 0 615.51 214.05" xmlns="http://www.w3.org/2000/svg"><path d="m153.55 167.31c-6.74.38-10.23-1.81-12.88-5.05-8.45-10.3-13-22.39-15.11-35.37-.78-4.77 1.55-6.89 6.27-5.82 12.55 2.87 23.85 8.36 32.69 17.93 4.28 4.64 5.56 10.33 2.51 16.29-3.31 6.47-8.14 11.11-13.48 12.02z" fill="#037649"/><path d="m0 121.45a12.43 12.43 0 0 1 12.22-12.27c5.67-.05 10 4.35 10 10.22 0 6.92-5.34 12.66-11.78 12.6a10.44 10.44 0 0 1 -10.44-10.55z" fill="#067649"/><g fill="#047649"><path d="m99.78 158.35c.38-6.95.72-15.35 4.53-23 2.27-4.57 5-5.5 8.38-2.37 10.41 9.51 18.61 20.62 21.38 34.79 1.6 8.17-2.61 13.43-10.8 14.6-.17 0-.35 0-.53 0-17.61 2.1-22.82-3.03-22.96-24.02z"/><path d="m157.37 99.35c7 .54 14.12.76 21 2.89s9.42 6 8.94 13.14c-1.31 18.93-10.4 23.62-26.22 13.53-7.66-4.88-15.06-10.12-20.65-17.44-4.39-5.76-3.37-8.58 3.64-10.58 4.31-1.23 8.77-1.23 13.29-1.54z"/><path d="m95 158.47c-.24 4.84-.1 9.84-1.58 14.65-1.59 5.18-4.69 7.21-10 6.65a17.65 17.65 0 0 1 -2.6-.54c-19.77-5.28-21.29-13-13.55-27.14 3.77-6.91 7.73-13.6 13.79-18.75 5.45-4.64 8.69-3.74 11 2.93 2.4 7.16 2.7 14.62 2.94 22.2z"/><path d="m171.83 95.75c-8.37-.55-18.08-1.58-27.24-5.35-8.08-3.32-8.6-6.89-1.71-12.44 8-6.45 17.37-10.38 27.2-13 7.68-2 12.14.67 15.06 8.1a43.41 43.41 0 0 1 1.7 5.59c3.1 12.79-.6 17.42-15.01 17.1z"/><path d="m135 70.34c-8 .12-9.7-2.08-6.93-9.57 3.53-9.59 10-17.1 17.91-23.36a10.67 10.67 0 0 1 11.59-1.22 30 30 0 0 1 12.43 10.51c3.36 4.95 2.6 8.69-2.2 12.38-6.87 5.28-23.88 11.11-32.8 11.26z"/><path d="m68.17 119.11c3.42-.36 5.18 1.4 4.71 5-1.7 13.06-7.43 24.32-15.94 34.18-2.35 2.72-5.64 2.73-8.74.88a21.11 21.11 0 0 1 -3.4-2.55c-12.8-11.85-12.24-19.41 2.2-28.96 8.27-5.49 15.86-8.59 21.17-8.55z"/></g><path d="m105.07 42.91c.08-.59.29-2.71.62-4.82.93-5.8 1.17-12.58 7.91-14.55 8.12-2.38 16.29-.79 23.54 3.68 3.35 2.07 2.92 5.65 1.23 8.58-5.42 9.38-12.44 17.36-22 22.77-5.23 3-8.17 1.66-10-4.12a32.75 32.75 0 0 1 -1.3-11.54z" fill="#e27c26"/><path d="m23.72 110.57c0-7 2.28-10.34 9-11.87 8.57-2 17.26-2.55 25.82.18 6.55 2.08 7.55 5.16 3.27 10.57-6.42 8.13-14.73 13.93-24.07 18.16-6.08 2.75-9.59.89-11.94-5.56a30.43 30.43 0 0 1 -2.08-11.48z" fill="#047649"/><path d="m35.94 93.15c-9.08-.43-11.58-3.81-8.85-13a39.07 39.07 0 0 1 6.18-12.89c2.64-3.44 6-5.06 10.29-3.59 7.68 2.64 14.57 6.62 19.78 13 4.78 5.84 3.89 9.26-2.93 12.32-7.63 3.38-15.82 3.74-24.47 4.16z" fill="#047649"/><path d="m91.32 24.27c9.11-.27 11.14 1.73 10.24 10.73-.7 7.06-1.86 14.09-5.27 20.45-2.74 5.1-5.81 5.74-10.25 2.08-5.89-4.84-9.69-11.2-12.04-18.39-1.45-4.32-.1-7.69 4-9.81 2.19-1.15 4.47-2.13 6.71-3.18 1.56-2.71 4.44-1.02 6.61-1.88z" fill="#047649"/><path d="m52.71 42.87c11.47-7.43 15.11-6.39 21.05 6.13a34.56 34.56 0 0 1 3.7 14.85c0 4.2-2.13 6.06-5.87 5.7-9.47-.92-17.7-5-25-11-2.9-2.39-3-5.49-.92-8.55 1.1-1.59 2.47-3 3.72-4.49.61-1.4 1.29-2.87 3.32-2.64z" fill="#047649"/><path d="m172.61 161c5.78 0 11.25 4.24 13.42 10.43 2.27 6.47.77 13.61-3.61 17.21a9.93 9.93 0 0 1 -.86.63c-4.14 2.77-9.67 2.24-14.38-1.39-5.32-4.09-7.94-12.07-6-18.15 1.87-5.61 5.91-8.73 11.43-8.73z" fill="#057649"/><path d="m129.05 214.05c-8.53 0-16.51-8.27-16.43-17 .07-6.74 4.75-11.43 11.38-11.4 8.22 0 15.79 8.2 15.79 17 0 6.74-4.38 11.35-10.74 11.4z" fill="#057649"/><path d="m213.19 129.57c-.09 6.72-4.92 11.76-11.22 11.73-7.21 0-13.8-7.2-13.74-14.94a11 11 0 0 1 11.6-11.17 13.94 13.94 0 0 1 13.36 14.38z" fill="#057649"/><path d="m202.38 63.5c7.59.08 13 5.37 12.91 12.63a12 12 0 0 1 -12.36 12c-7.31-.08-13.6-6.07-13.67-13-.07-6.75 5.51-11.71 13.12-11.63z" fill="#057649"/><path d="m84.67 195.24c-.08 6.42-4.24 10.83-10.1 10.68-7.2-.19-13.5-7.36-13.42-15.27.06-6.71 4.32-11.23 10.36-11 7.03.24 13.25 7.62 13.16 15.59z" fill="#067649"/><path d="m179.74 20.94c7.31-.05 11.83 3.75 11.86 10 0 6.91-6.49 12.52-14.52 12.48-6.93 0-12.25-4.26-12.41-9.86-.2-6.79 6.71-12.56 15.07-12.62z" fill="#057649"/><path d="m131.23 21.51c-4-.19-8.07-.87-9.82-5.05-1.63-3.87.12-7.31 2.76-10.21 3.92-4.25 8.83-6.68 14.66-6.19 7.43.63 10.68 7.18 6.73 13.53-3.25 5.24-8.34 7.46-14.33 7.92z" fill="#e27c26"/><path d="m13.13 85.09c-6 0-10-3.79-9.93-9.43.08-6.87 6.79-12.93 14.37-13 5.79-.05 9.46 3.19 9.56 8.44.14 7.25-6.61 13.99-14 13.99z" fill="#067649"/><path d="m21.59 163c.1-6.9 4.85-12 11-11.78 5.82.18 10.38 5.7 10.36 12.56s-4.72 12.4-10.58 12.22-10.88-6.24-10.78-13z" fill="#067649"/><path d="m79.32 24.37c-4.82-2.87-5.65-5.86-2.7-10.37a18.23 18.23 0 0 1 11.7-7.7c2.73-.62 5.47-.3 7.26 2s1.34 5 .26 7.58c-1.38 3.25-4.09 5.27-6.86 7.23-2.86 3.28-6.41 1.1-9.66 1.26z" fill="#09764a"/><path d="m48.32 44.46c-3.53 1.27-7.12 2.17-10.84.94-5.16-1.72-6.67-6.82-3.08-10.91 4.09-4.67 9.48-6.07 15.39-4.91 4.94 1 5.82 5.2 2.7 11.48a5.29 5.29 0 0 1 -4.17 3.4z" fill="#09764a"/><path d="m79.32 24.37c3.34.55 6.52-.19 9.66-1.2l2.34 1.1-6.7 1.88c-1.41-1.66-3.97.12-5.3-1.78z" fill="#dae1da"/><path d="m48.32 44.46 4.17-3.4.22 1.81-3.3 2.7z" fill="#dee4de"/><path d="m285.74 61.51h-9.39v-1.14q0-4.21-1.85-5.59c-1.23-.92-3.76-1.38-7.61-1.38q-7 0-9.11 1.34c-1.41.89-2.12 2.8-2.12 5.71 0 3.52.62 5.68 1.84 6.49s5 1.21 11.28 1.21c7.47 0 12.36 1 14.69 3s3.53 5.95 3.53 11.85q0 10.79-3.82 14t-16.41 3.24q-12.83 0-16.83-3t-4-12.61v-2h9.39v1.17c0 3.73.63 6 1.87 6.85s4.65 1.25 10.19 1.25c4.28 0 7-.48 8.21-1.45s1.79-3.22 1.79-6.73q0-4.05-1.38-5.43t-5.83-1.38l-5.37-.33q-11.81 0-15.34-3t-3.53-12.24q0-9.81 4-13t16.59-3.16q11.25 0 15.24 2.91t4 11.35z"/><path d="m338.1 45.62v54.15h-9.77v-23h-23.59v23h-9.74v-54.15h9.77v22.21h23.59v-22.21z"/><path d="m367.94 45.22q10.23 0 14.46 1.62a10.8 10.8 0 0 1 6.11 5.43 23.7 23.7 0 0 1 2.33 7.62 117.2 117.2 0 0 1 .46 12.32 134.06 134.06 0 0 1 -.46 13.66 22 22 0 0 1 -2.33 7.33 11.25 11.25 0 0 1 -6.34 5.35q-4.46 1.71-13.09 1.7-14.88 0-19-4.66t-4.16-21.11a136 136 0 0 1 .54-14.92 19.82 19.82 0 0 1 2.54-7.62 12 12 0 0 1 6.45-5.1q4.41-1.62 12.49-1.62zm13.43 29.1v-8.43q0-7.78-2.32-9.77t-11.34-2q-8.77 0-10.34 2.8t-1.57 18.29q0 11.67 1.95 13.9t12 2.23q7.94 0 9.77-2.68t1.85-14.34z"/><path d="m399 99.77v-54.15h23.44q9.84 0 13.54 3.79t3.71 14q0 11.73-3.25 15.35t-14.08 3.62h-13.59v17.39zm9.77-26.35h11c4.37 0 7.13-.52 8.28-1.58s1.71-3.6 1.71-7.62q0-6.75-1.45-8.38c-1-1.08-3.48-1.63-7.55-1.63h-12z"/><path d="m447 99.77v-54.15h23.43q9.85 0 13.55 3.79t3.7 14q0 11.73-3.24 15.35t-14.08 3.62h-13.58v17.39zm9.77-26.35h11c4.38 0 7.14-.52 8.28-1.58s1.72-3.6 1.72-7.62q0-6.75-1.45-8.38c-1-1.08-3.48-1.63-7.55-1.63h-12z"/><path d="m504.79 45.62v54.15h-9.79v-54.15z"/><path d="m562.26 45.62v54.15h-16.41l-14.58-29.72-3.35-7.8-1.61-3.9-1.68-3.81h-.3l.08 3.49c0 2.16 0 4.38.11 6.66s.11 3.6.11 4v31.1h-9.63v-54.17h16.33l13.28 27.5 4 8.86 1.91 4.4 2 4.47h.31l-.08-3.5q0-3.09-.12-6.46c-.07-2.25-.11-3.6-.11-4v-31.27z"/><path d="m592.34 71.07h22.59l.07 1.46v9.4q0 11.52-4.12 14.92t-18.09 3.4q-13.5 0-17.9-4.41t-4.38-17.84v-6.4q0-16.94 4.13-21.64t18.77-4.7q13.86 0 17.73 3t3.86 13.65h-9.84q0-5.43-2-6.72t-10.21-1.3q-8.08 0-10.29 2.23t-2.19 10.49v12.57q0 8.19 2.22 10.29t10.87 2.11q7.5 0 9.61-1.9t2.1-8.72l-.07-2.19h-12.86z"/><path d="m335.4 149.13h9.6v1.78q0 11.11-3.82 14.55t-16.26 3.45q-14.12 0-18.43-4.1t-4.31-17.87v-9.73q0-14.5 4.52-18.92t19.74-4.42q11 0 14.56 3.28t3.54 14v1.22h-9.62l-.07-1.38q0-5.27-1.76-6.73t-8-1.45q-9.24 0-11.07 2.27t-1.83 14q0 15.15 1.6 18t10.08 2.92q7.26 0 9.39-1.54t2.14-6.89z"/><path d="m361.58 114.28v54.14h-9.77v-54.14z"/><path d="m371 168.42v-54.14h25.11q10.46 0 14.85 5.07t4.39 17.09q0 11.52-.38 16a31.4 31.4 0 0 1 -2.97 10.22q-2.67 5.76-15.49 5.76zm9.77-8.91h13.74q6.94 0 8.93-3.34t2-15q0-11.64-1.84-14.81t-8.47-3.18h-14.32z"/><path d="m453.63 158.05h-22l-3.12 10.37h-10.22l16.94-54.14h14.43l17.25 54.14h-10zm-2.22-7.7-8.77-28.13-8.71 28.13z"/><path d="m471.79 168.42v-54.14h25.11q10.46 0 14.85 5.07t4.39 17.09q0 11.52-.38 16a31.4 31.4 0 0 1 -3.06 10.23q-2.67 5.76-15.49 5.76zm9.77-8.91h13.74q6.94 0 8.93-3.34t2-15q0-11.64-1.84-14.81t-8.47-3.18h-14.36z"/><path d="m554.38 158.05h-22l-3.13 10.37h-10.25l17-54.14h14.43l17.25 54.14h-10zm-2.14-57.15 4.27 2.51a16.48 16.48 0 0 1 -3.62 4.79 6.43 6.43 0 0 1 -4.16 1.45 10.19 10.19 0 0 1 -5-1.58 39.5 39.5 0 0 0 -3.74-2 4.76 4.76 0 0 0 -1.76-.41 3 3 0 0 0 -2 .65 8.38 8.38 0 0 0 -1.68 2.35l-4.35-2.51a15.78 15.78 0 0 1 3.63-4.74 6.44 6.44 0 0 1 4.08-1.34 10.55 10.55 0 0 1 4.88 1.62c1.94 1.08 3.23 1.76 3.9 2a4.85 4.85 0 0 0 1.83.4q1.96.05 3.72-3.19zm-.08 49.45-8.78-28.13-8.7 28.13z"/><path d="m592.16 113.87q10.23 0 14.46 1.62a10.83 10.83 0 0 1 6.11 5.43 23.67 23.67 0 0 1 2.32 7.62 114.59 114.59 0 0 1 .46 12.32 131 131 0 0 1 -.46 13.66 22 22 0 0 1 -2.32 7.34 11.29 11.29 0 0 1 -6.34 5.35q-4.47 1.69-13.09 1.7-14.88 0-19-4.66t-4.16-21.12a139.2 139.2 0 0 1 .53-14.91 19.72 19.72 0 0 1 2.6-7.62 11.93 11.93 0 0 1 6.45-5.11q4.34-1.62 12.44-1.62zm13.43 29.13v-8.43q0-7.78-2.33-9.77t-11.33-2q-8.77 0-10.34 2.79t-1.59 18.27q0 11.67 2 13.9t12 2.24q7.93 0 9.77-2.67t1.82-14.33z"/><path d="m244.2 154.62v-27h13.3c3.69 0 6.31.85 7.86 2.53s2.32 4.53 2.32 8.52c0 3.83-.06 6.49-.2 8a14.78 14.78 0 0 1 -1.61 5.09c-.95 1.92-3.68 2.88-8.21 2.88zm5.18-4.45h7.27q3.68 0 4.73-1.66t1.05-7.47q0-5.81-1-7.39c-.65-1.05-2.14-1.58-4.49-1.58h-7.59z" fill="#e27d27"/><path d="m281.79 127.42a25.18 25.18 0 0 1 7.66.81 5.62 5.62 0 0 1 3.23 2.71 11.19 11.19 0 0 1 1.23 3.8 54.87 54.87 0 0 1 .24 6.14 63 63 0 0 1 -.24 6.81 10.56 10.56 0 0 1 -1.23 3.66 5.85 5.85 0 0 1 -3.36 2.66 21.44 21.44 0 0 1 -6.93.85q-7.87 0-10.08-2.32t-2.2-10.54a64.53 64.53 0 0 1 .28-7.44 9.42 9.42 0 0 1 1.38-3.79 6.25 6.25 0 0 1 3.41-2.55 21 21 0 0 1 6.61-.8zm7.11 14.51v-4.2q0-3.89-1.23-4.87c-.82-.66-2.83-1-6-1s-4.93.46-5.48 1.39-.83 4-.83 9.11c0 3.88.35 6.19 1 6.93s2.81 1.12 6.37 1.12q4.2 0 5.17-1.34t1-7.14z" fill="#e27d27"/></svg>