<?xml version="1.0" encoding="UTF-8"?>
<svg width="533px" height="164px" viewBox="0 0 533 164" version="1.1" xmlns="http://www.w3.org/2000/svg" xmlns:xlink="http://www.w3.org/1999/xlink">
    <title>Brand/Pitzi/logo-pitzi-varejo</title>
    <defs>
        <polygon id="path-1" points="15.2635585 8.2672 10.8115585 14.1762 3.46455845 13.2722 0.57655845 6.4622 5.02955845 0.5522 12.3735585 1.4572"></polygon>
        <path d="M64.4783163,1.6445789 C68.5513163,3.5805789 71.6253163,6.9875789 73.1353163,11.2365789 L109.319316,113.051579 C112.435316,121.824579 107.835316,131.497579 99.0643163,134.615579 L58.7323163,148.947579 C56.8813163,149.605579 54.9673163,149.933579 53.0603163,149.933579 C50.5863163,149.933579 48.1243163,149.382579 45.8243163,148.289579 C41.7523163,146.352579 38.6773163,142.944579 37.1663163,138.693579 L0.984316257,36.8815789 C-0.526683743,32.6305789 -0.291683743,28.0475789 1.64531626,23.9745789 C3.58231626,19.9015789 6.98931626,16.8275789 11.2383163,15.3165789 L51.5713163,0.983578905 C55.8213163,-0.526421095 60.4053163,-0.291421095 64.4783163,1.6445789 Z M57.2383163,2.0005789 C55.5573163,2.0005789 53.8713163,2.2885789 52.2403163,2.8685789 L11.9083163,17.2015789 C8.16231626,18.5325789 5.15931626,21.2435789 3.45131626,24.8335789 C1.74431626,28.4235789 1.53731626,32.4645789 2.86931626,36.2115789 L39.0513163,138.023579 C40.3833163,141.771579 43.0933163,144.775579 46.6833163,146.483579 C50.2743163,148.190579 54.3153163,148.395579 58.0613163,147.062579 L98.3943163,132.730579 C106.126316,129.982579 110.181316,121.455579 107.434316,113.721579 L71.2503163,11.9065789 C69.9193163,8.1605789 67.2093163,5.1575789 63.6193163,3.4505789 C61.5913163,2.4865789 59.4193163,2.0005789 57.2383163,2.0005789 Z M44.6064163,126.122579 L53.0964163,127.165579 L56.4394163,135.039579 L51.2924163,141.868579 L42.7984163,140.822579 L39.4594163,132.950579 L44.6064163,126.122579 Z M45.5094163,128.247579 L41.7514163,133.231579 L44.1894163,138.978579 L50.3894163,139.741579 L54.1474163,134.757579 L51.7074163,129.008579 L45.5094163,128.247579 Z M61.1329163,120.248579 L69.6219163,121.291579 L72.9649163,129.163579 L67.8189163,135.994579 L59.3239163,134.948579 L55.9839163,127.079579 L61.1329163,120.248579 Z M62.0359163,122.373579 L58.2759163,127.360579 L60.7139163,133.104579 L66.9169163,133.867579 L70.6729163,128.881579 L68.2329163,123.134579 L62.0359163,122.373579 Z M77.8926163,114.289479 L86.3836163,115.336479 L89.7236163,123.207479 L84.5756163,130.039479 L76.0836163,128.993479 L72.7446163,121.122479 L77.8926163,114.289479 Z M78.7956163,116.416479 L75.0366163,121.403479 L77.4746163,127.149479 L83.6726163,127.912479 L87.4316163,122.925479 L84.9926163,117.179479 L78.7956163,116.416479 Z M93.8721163,108.611779 L102.363116,109.658779 L105.704116,117.530779 L100.557116,124.362779 L92.0631163,123.316779 L88.7251163,115.444779 L93.8721163,108.611779 Z M94.7751163,110.738779 L91.0161163,115.725779 L93.4541163,121.472779 L99.6541163,122.235779 L103.412116,117.248779 L100.972116,111.501779 L94.7751163,110.738779 Z M60.0124163,16.0928789 C64.0844163,18.0298789 67.1584163,21.4378789 68.6684163,25.6888789 L90.8064163,87.9778789 C93.9234163,96.7498789 89.3244163,106.422879 80.5534163,109.540879 L56.9084163,117.943879 C55.0594163,118.599879 53.1474163,118.926879 51.2424163,118.926879 C48.7674163,118.926879 46.3034163,118.374879 44.0014163,117.280879 C39.9294163,115.343879 36.8544163,111.935879 35.3444163,107.685879 L13.2084163,45.3978789 C10.0904163,36.6248789 14.6914163,26.9508789 23.4634163,23.8338789 L47.1074163,15.4308789 C51.3574163,13.9198789 55.9394163,14.1558789 60.0124163,16.0928789 Z M52.7724163,16.4478789 C51.0924163,16.4478789 49.4074163,16.7358789 47.7774163,17.3158789 L24.1334163,25.7188789 C16.3994163,28.4668789 12.3444163,36.9938789 15.0924163,44.7278789 L37.2294163,107.015879 C38.5604163,110.762879 41.2704163,113.766879 44.8604163,115.474879 C48.4514163,117.182879 52.4924163,117.390879 56.2384163,116.058879 L79.8834163,107.655879 C87.6154163,104.906879 91.6694163,96.3798789 88.9214163,88.6478789 L66.7834163,26.3578789 C65.4524163,22.6108789 62.7424163,19.6058789 59.1524163,17.8988789 C57.1254163,16.9338789 54.9534163,16.4478789 52.7724163,16.4478789 Z" id="path-3"></path>
    </defs>
    <g id="Brand/Pitzi/logo-pitzi-varejo" stroke="none" stroke-width="1" fill="none" fill-rule="evenodd">
        <g id="Phone">
            <g id="Phone-button" transform="translate(89.294058, 109.122579)">
                <mask id="mask-2" fill="white">
                    <use xlink:href="#path-1"></use>
                </mask>
                <use fill="#7FAFDD" xlink:href="#path-1"></use>
                <g id="Group" mask="url(#mask-2)">
                    <g transform="translate(-89.293842, -109.122900)" id="Color">
                        <rect id="Rectangle" fill="#364FD9" x="0" y="0" width="361" height="150"></rect>
                    </g>
                </g>
            </g>
            <g id="Line-art">
                <mask id="mask-4" fill="white">
                    <use xlink:href="#path-3"></use>
                </mask>
                <use fill="#124B8C" xlink:href="#path-3"></use>
                <g id="Group" mask="url(#mask-4)">
                    <g transform="translate(0.000216, -0.000321)" id="Color">
                        <rect id="Rectangle" fill="#364FD9" x="0" y="0" width="361" height="150"></rect>
                    </g>
                </g>
            </g>
        </g>
        <path d="M387.3,112.4 L387.3,102.32 C387.3,101.228 387.216,100.472 387.216,100.472 L387.3,100.472 C387.3,100.472 389.148,104.504 394.23,104.504 C399.69,104.504 403.68,100.136 403.68,93.458 C403.68,86.906 400.152,82.37 394.482,82.37 C388.896,82.37 387.174,86.57 387.174,86.57 L387.09,86.57 L387.094082,86.5331147 C387.110907,86.3758667 387.174,85.7328 387.174,84.932 L387.174,82.874 L384.444,82.874 L384.444,112.4 L387.3,112.4 Z M393.936,101.984 C389.568,101.984 387.216,97.742 387.216,93.5 C387.216,87.494 390.534,84.974 394.062,84.974 C398.01,84.974 400.74,88.292 400.74,93.458 C400.74,98.834 397.674,101.984 393.936,101.984 Z M414.642,104.504 C419.934,104.504 421.698,99.926 421.698,99.926 L421.782,99.926 C421.782,99.926 421.708172,100.553539 421.698943,101.497155 L421.698,104 L424.428,104 L424.428,90.476 C424.428,85.184 421.614,82.37 416.532,82.37 C411.786,82.37 409.014,84.764 409.014,84.764 L410.358,86.948 C410.358,86.948 412.836,84.932 416.322,84.932 C419.346,84.932 421.572,86.318 421.572,90.392 L421.572,90.938 L420.396,90.938 C416.742,90.938 407.46,91.106 407.46,98.246 C407.46,102.446 411.114,104.504 414.642,104.504 Z M415.104,102.068 C411.954,102.068 410.4,100.052 410.4,98.078 C410.4,93.416 417.036,93.29 420.354,93.29 L421.572,93.29 L421.572,94.214 C421.572,97.868 419.136,102.068 415.104,102.068 Z M433.878,104 L433.878,95.096 C433.878,93.752 434.046,92.324 434.466,90.98 C435.39,87.872 437.616,85.52 440.598,85.52 C441.144,85.52 441.648,85.604 441.648,85.604 L441.648,82.79 C441.648,82.79 441.102,82.664 440.514,82.664 C437.196,82.664 434.844,85.1 433.836,88.292 L433.752,88.292 C433.752,88.292 433.836,87.536 433.836,86.612 L433.836,82.874 L431.022,82.874 L431.022,104 L433.878,104 Z M451.434,104.504 C456.726,104.504 458.49,99.926 458.49,99.926 L458.574,99.926 C458.574,99.926 458.500172,100.553539 458.490943,101.497155 L458.49,104 L461.22,104 L461.22,90.476 C461.22,85.184 458.406,82.37 453.324,82.37 C448.578,82.37 445.806,84.764 445.806,84.764 L447.15,86.948 C447.15,86.948 449.628,84.932 453.114,84.932 C456.138,84.932 458.364,86.318 458.364,90.392 L458.364,90.938 L457.188,90.938 C453.534,90.938 444.252,91.106 444.252,98.246 C444.252,102.446 447.906,104.504 451.434,104.504 Z M451.896,102.068 C448.746,102.068 447.192,100.052 447.192,98.078 C447.192,93.416 453.828,93.29 457.146,93.29 L458.364,93.29 L458.364,94.214 C458.364,97.868 455.928,102.068 451.896,102.068 Z M399.018,152 L409.602,121.97 L401.748,121.97 L396.372,139.064 C395.784,140.954 395.238,143.894 395.238,143.894 L395.154,143.894 C395.154,143.894 394.608,140.954 394.02,139.064 L388.728,121.97 L380.748,121.97 L391.374,152 L399.018,152 Z M417.75,152.504 C422.286,152.504 423.882,149.354 423.882,149.354 L423.966,149.354 C423.966,149.354 423.882,149.984 423.882,150.698 L423.882,152 L430.518,152 L430.518,138.686 C430.518,133.184 426.864,129.866 420.774,129.866 C415.44,129.866 411.702,132.68 411.702,132.68 L414.222,137.804 C414.222,137.804 417.33,135.746 420.06,135.746 C421.866,135.746 423.252,136.334 423.252,138.14 L423.252,138.518 L422.958,138.518 C419.598,138.518 410.4,139.232 410.4,145.532 C410.4,149.816 413.718,152.504 417.75,152.504 Z M419.766,146.96 C418.338,146.96 417.708,146.162 417.708,145.154 C417.708,143.348 420.354,142.676 422.664,142.676 L423.336,142.676 L423.336,143.138 C423.336,144.902 421.656,146.96 419.766,146.96 Z M442.824,152 L442.824,143.81 C442.824,142.634 442.95,141.668 443.202,140.87 C444.252,137.636 447.066,137.09 448.788,137.09 C449.67,137.09 450.258,137.216 450.258,137.216 L450.258,130.076 C450.258,130.076 449.838,129.992 449.418,129.992 C446.184,129.992 443.454,132.428 442.53,135.368 L442.446,135.368 L442.455918,135.286587 C442.478143,135.094143 442.53,134.585 442.53,134.024 L442.53,130.37 L435.558,130.37 L435.558,152 L442.824,152 Z M463.95,152.504 C469.704,152.504 473.19,149.354 473.19,149.354 L470.502,144.272 C470.502,144.272 467.646,146.456 464.538,146.456 C462.228,146.456 460.044,145.238 459.498,142.592 L473.148,142.592 C473.148,142.592 473.316,141.038 473.316,140.324 C473.316,134.318 469.704,129.866 463.32,129.866 C456.348,129.866 452.064,134.822 452.064,141.164 C452.064,146.918 456.222,152.504 463.95,152.504 Z M466.008,138.434 L459.666,138.434 C460.044,136.838 461.052,135.326 463.152,135.326 C464.874,135.326 466.008,136.796 466.008,138.434 Z M484.446,127.64 L484.446,121.97 L477.348,121.97 L477.348,127.64 L484.446,127.64 Z M474.366,160.736 C477.726,160.736 484.53,159.812 484.53,152.546 L484.53,130.37 L477.264,130.37 L477.264,151.832 C477.264,154.194182 474.933906,154.581708 473.490613,154.603025 L473.358,154.604 C472.812,154.604 472.434,154.562 472.434,154.562 L472.434,160.61 C472.434,160.61 473.19,160.736 474.366,160.736 Z M500.574,152.504 C507.378,152.504 512.838,148.01 512.838,141.248 C512.838,134.444 507.378,129.866 500.532,129.866 C493.77,129.866 488.31,134.444 488.31,141.248 C488.31,148.01 493.77,152.504 500.574,152.504 Z M500.574,146.456 C497.928,146.456 495.66,144.482 495.66,141.248 C495.66,137.972 497.928,135.914 500.574,135.914 C503.22,135.914 505.488,137.972 505.488,141.248 C505.488,144.482 503.22,146.456 500.574,146.456 Z" id="paraVarejo" fill="#364FD9" fill-rule="nonzero"></path>
        <path d="M144.018,126.8 L144.018,104.798 C144.018,101.834 143.79,99.782 143.79,99.782 L144.018,99.782 C144.018,99.782 149.376,105.368 158.952,105.368 C174.57,105.368 186.312,93.284 186.312,74.702 C186.312,56.462 175.824,43.922 159.864,43.922 C147.756615,43.922 142.359416,51.6062446 142.090597,52.0003084 L142.08,52.016 L142.08,52.016 L141.852,52.016 C141.852,52.016 142.08,50.192 142.08,48.254 L142.08,45.29 L124.296,45.29 L124.296,126.8 L144.018,126.8 Z M154.962,89.066 C147.21,89.066 143.448,82.112 143.448,75.044 C143.448,64.898 149.034,60.566 154.962,60.566 C161.802,60.566 166.476,66.266 166.476,75.044 C166.476,84.05 161.118,89.066 154.962,89.066 Z M216.408,37.88 L216.408,22.49 L197.142,22.49 L197.142,37.88 L216.408,37.88 Z M216.636,104 L216.636,45.29 L196.914,45.29 L196.914,104 L216.636,104 Z M267.024,104.228 L267.024,87.128 C267.024,87.128 265.998,87.242 264.402,87.242 C260.64,87.242 253.914,86.33 253.914,79.718 L253.914,61.706 L266.226,61.706 L266.226,46.316 L253.914,46.316 L253.914,29.444 L234.762,29.444 L234.762,46.316 L226.668,46.316 L226.668,61.706 L234.192,61.706 L234.192,82.34 C234.192,101.86478 251.957293,104.518119 261.382954,104.569233 L261.666,104.57 C264.858,104.57 267.024,104.228 267.024,104.228 Z M329.04,104 L329.04,87.47 L307.038,87.47 C303.276,87.47 301.794,87.812 301.794,87.812 L301.794,87.584 C301.794,87.584 304.188,85.76 307.038,82.226 L328.47,55.208 L328.47,45.29 L276.03,45.29 L276.03,61.82 L296.664,61.82 C300.312,61.82 301.794,61.592 301.794,61.592 L301.794,61.82 C301.794,61.82 299.628,63.53 296.664,67.178 L275.118,94.196 L275.118,104 L329.04,104 Z M359.934,37.88 L359.934,22.49 L340.668,22.49 L340.668,37.88 L359.934,37.88 Z M360.162,104 L360.162,45.29 L340.44,45.29 L340.44,104 L360.162,104 Z" id="pitzi" fill="#364FD9" fill-rule="nonzero"></path>
    </g>
</svg>